<svg viewBox="0 0 1024 1024" xmlns="http://www.w3.org/2000/svg" id="e3a28ba5-3b13-4350-8ba0-77f7500346e5"><defs><style>.a4c7da57-4483-42c6-9f6c-a8322139e6f8{fill:#e61f19;opacity:0.2;}.b3893884-0a87-436e-bc06-50fd4587ebbe{fill:#fff;}.a78f4919-5ac6-48a9-96dd-1f98ab3ab9e1{fill:#040000;}.e40558f1-81f3-4372-b5c4-21eaabaf7f7b{fill:#231815;}.a6a03a39-3570-4416-b587-938e54b6110e{fill:none;}</style></defs><title>党建1024px尺寸</title><path d="M889.07,425.17C713.53,387.61,771.49,53.89,416.3,53.89c-238.66,0-309.74,148.34-330.7,245.68-2.1,9.74-3.25,22-3.75,35.42l41.39,20.81a6.4,6.4,0,0,1-2.87,12.12,6.28,6.28,0,0,1-2.87-.69L81.55,349.17A666.29,666.29,0,0,0,88,441.09c4.9,32.7,2.44,64.81-23.56,168.2C-14.18,921.63,312.36,750,623.46,812.34S1064.61,462.73,889.07,425.17Z" class="a4c7da57-4483-42c6-9f6c-a8322139e6f8"></path><path d="M142.17,828.64c0-220.88,179.07-399.95,400-399.95s400,179.07,400,400" class="b3893884-0a87-436e-bc06-50fd4587ebbe"></path><path d="M942.07,830.77a2.13,2.13,0,0,1-2.13-2.13c0-219.36-178.46-397.82-397.82-397.82S144.31,609.28,144.31,828.64a2.14,2.14,0,0,1-4.27,0c0-221.71,180.38-402.08,402.08-402.08S944.21,606.93,944.21,828.64A2.13,2.13,0,0,1,942.07,830.77Z" class="a78f4919-5ac6-48a9-96dd-1f98ab3ab9e1"></path><path d="M287.35,562.86s-26.43,99.71,37.24,109.32,171.79-96.54,171.79-96.54l29.19-19.44a59,59,0,0,0,20.67-22c4.27-8.12,8.11-16.42-1.8-18.22,0,0,9.51-16.57-5.46-16.57,0,0,3.45-16.47-12-9.86,0,0-5.26-13.37-15-3.6-9.21,9.21-13.75,22.48-28.76,31.69,0,0,7.34-17.28-1.47-20.28s-14,8-19.42,35.84c0,0-.41,7.61-4.61,9.61-3.9,1.86-71.09,46.48-96.42,54.49a4.1,4.1,0,0,1-5.28-3.8l-.61-15.85" class="b3893884-0a87-436e-bc06-50fd4587ebbe"></path><path d="M333.21,674.94a59.94,59.94,0,0,1-8.93-.65c-14.51-2.19-25.67-9.1-33.18-20.54-21.16-32.23-6.45-89-5.81-91.43a2.14,2.14,0,1,1,4.13,1.09c-.16.57-14.87,57.38,5.25,88,6.82,10.37,17,16.65,30.24,18.65a55.19,55.19,0,0,0,8.21.59c62.68,0,160.74-95.53,161.77-96.54l29.5-19.7a57.1,57.1,0,0,0,20-21.18c2-3.75,5.25-10,3.86-12.86-.54-1.1-1.94-1.87-4.16-2.27a2.14,2.14,0,0,1-1.47-3.16c1.12-2,3.9-8.2,2.13-11.25-.82-1.41-2.75-2.13-5.73-2.13a2.13,2.13,0,0,1-2.09-2.56c.33-1.59.79-6.48-1.29-8.17-1.73-1.42-5.17-.4-7.74.7a2.13,2.13,0,0,1-1.66,0,2.16,2.16,0,0,1-1.17-1.17c-.56-1.41-2.62-5.18-5.42-5.75-1.77-.36-3.83.6-6.1,2.86a82.1,82.1,0,0,0-8.62,10.9c-4.95,7-10.57,15-20.54,21.11a2.13,2.13,0,0,1-3.08-2.65c1.21-2.86,3.94-11.18,2.07-15.35a3.59,3.59,0,0,0-2.26-2.08,4.82,4.82,0,0,0-4.25.25c-5.79,3.36-9.66,19.92-12.39,34,0,.61-.58,8.65-5.78,11.12-.73.35-5.07,3.09-10.1,6.27C427,564.65,382.09,593,362,599.37a6,6,0,0,1-5.38-.85,6.21,6.21,0,0,1-2.67-4.91l-.61-15.84a2.14,2.14,0,0,1,2.05-2.22,2.23,2.23,0,0,1,2.21,2.05l.61,15.85A2,2,0,0,0,359,595a1.86,1.86,0,0,0,1.64.26c19.6-6.2,65.86-35.41,85.61-47.88,6.65-4.2,9.62-6.07,10.54-6.51,2.48-1.18,3.3-6.15,3.4-7.8,4.46-23.08,8.64-33.76,14.47-37.14a9.07,9.07,0,0,1,7.76-.6,7.91,7.91,0,0,1,4.79,4.38c1.62,3.63,1,8.56,0,12.47,6.15-5,10.19-10.7,14.13-16.3a84.85,84.85,0,0,1,9.09-11.45c3.36-3.35,6.74-4.71,10-4,3.82.8,6.33,4.23,7.58,6.45,4.4-1.53,7.85-1.32,10.24.65,3.08,2.53,3.3,7.08,3.09,9.91,3.32.44,5.67,1.82,7,4.12,2.39,4.11.54,9.82-.9,13.07a7.93,7.93,0,0,1,4.55,3.88c2.16,4.42-.62,10.42-3.92,16.7A61.13,61.13,0,0,1,526.72,558l-29.15,19.43a606.91,606.91,0,0,1-61.95,51.82C393.69,659.6,359.3,674.93,333.21,674.94Z" class="a78f4919-5ac6-48a9-96dd-1f98ab3ab9e1"></path><path d="M527,489.58s3.47,12.41-24.43,33.21" class="b3893884-0a87-436e-bc06-50fd4587ebbe"></path><path d="M502.59,524.93a2.13,2.13,0,0,1-1.27-3.84c25.95-19.35,23.66-30.87,23.63-31a2.15,2.15,0,0,1,1.55-2.56,2.11,2.11,0,0,1,2.57,1.46c.4,1.42,3,14.44-25.2,35.5A2.12,2.12,0,0,1,502.59,524.93Z" class="a78f4919-5ac6-48a9-96dd-1f98ab3ab9e1"></path><path d="M539,496.21s-5.07,25.38-28.94,36.82" class="b3893884-0a87-436e-bc06-50fd4587ebbe"></path><path d="M510.06,535.16a2.14,2.14,0,0,1-.93-4.06c22.58-10.82,27.72-35.06,27.77-35.31a2.13,2.13,0,1,1,4.18.84c-.21,1.08-5.56,26.56-30.1,38.32A2.17,2.17,0,0,1,510.06,535.16Z" class="a78f4919-5ac6-48a9-96dd-1f98ab3ab9e1"></path><path d="M545.67,513.06s-11.45,23.37-30.37,30.28" class="b3893884-0a87-436e-bc06-50fd4587ebbe"></path><path d="M515.3,545.47a2.14,2.14,0,0,1-.73-4.14c17.91-6.53,29.07-29,29.18-29.2a2.14,2.14,0,0,1,3.84,1.87c-.49,1-12.05,24.22-31.56,31.34A2,2,0,0,1,515.3,545.47Z" class="a78f4919-5ac6-48a9-96dd-1f98ab3ab9e1"></path><path d="M687.16,779.9a12.65,12.65,0,0,1-3.61-.54c-6.42-1.91-10.08-9-8.17-15.77,2.31-8.2,7.11-26.14,8.47-38.21-4.9,5.91-13.15,13.82-21,11.49a9.2,9.2,0,0,1-5.83-5.19,10.47,10.47,0,0,1,.07-8.66c2.24-4.73,7.14-10.08,14.57-15.91.7-.48,14.21-9.9,12.49-30.19-.1-1.48-10.09-144.88-17.92-188.14a2.14,2.14,0,0,1,1.77-2.49l60-9.35a2.14,2.14,0,0,1,2.46,2.06l4.9,191.3c0,1-.08,2.14-.14,3.52-.24,5.43-.81,18.16,1.15,21.29,6.64,10.61,11.19,30.48,4,54.42a20.22,20.22,0,0,1-4.88,8.43,13.19,13.19,0,0,1-6.25,3.77c-1.35,2.36-5.18,8.27-10.41,9.65a8.81,8.81,0,0,1-5.83-.46c-3.38,3.72-9.81,7.85-16.85,4.38A11.5,11.5,0,0,1,687.16,779.9Zm-.84-63.56a2.23,2.23,0,0,1,.56.08,2.13,2.13,0,0,1,1.57,2c.49,10.93-5.4,33.74-9,46.36-1.26,4.48,1.15,9.3,5.27,10.53a7.32,7.32,0,0,0,8.84-3.79,2.15,2.15,0,0,1,3.12-.81c7.52,5.13,13.82-3.35,14.08-3.72a2.13,2.13,0,0,1,2.92-.51,4.8,4.8,0,0,0,4.06.82c3.79-1,7.21-6.4,8.21-8.39a2.13,2.13,0,0,1,1.65-1.17A8.49,8.49,0,0,0,732.5,755a16,16,0,0,0,3.83-6.65c6.76-22.59,2.6-41.12-3.55-50.93-2.46-3.94-2.23-13.89-1.79-23.75.06-1.34.11-2.48.13-3.33l-4.83-188.76-55.49,8.64c7.81,45.87,17.5,185,17.6,186.41,1.93,22.84-13.58,33.53-14.24,34-8.48,6.66-11.88,11.45-13.22,14.29a6.13,6.13,0,0,0,0,5.08,5,5,0,0,0,3.15,2.84c7.17,2.07,17.22-10.44,20.48-15.46A2.12,2.12,0,0,1,686.32,716.34Z" class="a78f4919-5ac6-48a9-96dd-1f98ab3ab9e1"></path><path d="M695.51,774.56a2.06,2.06,0,0,1-.83-.17,2.12,2.12,0,0,1-1.13-2.79c7.67-18.2,7.78-41.15,7.78-41.38a2.13,2.13,0,0,1,2.13-2.13h0a2.13,2.13,0,0,1,2.13,2.13c0,1-.12,24-8.12,43A2.14,2.14,0,0,1,695.51,774.56Z" class="a78f4919-5ac6-48a9-96dd-1f98ab3ab9e1"></path><path d="M712.53,770.34a2,2,0,0,1-.54-.07,2.14,2.14,0,0,1-1.53-2.6,189.82,189.82,0,0,0,5.31-37,2.19,2.19,0,0,1,2.2-2.07,2.13,2.13,0,0,1,2.07,2.19,191.31,191.31,0,0,1-5.45,37.91A2.13,2.13,0,0,1,712.53,770.34Z" class="a78f4919-5ac6-48a9-96dd-1f98ab3ab9e1"></path><path d="M727.9,762a2,2,0,0,1-.64-.1,2.14,2.14,0,0,1-1.4-2.68c5.94-18.88,3.52-29.58,3.5-29.69a2.14,2.14,0,0,1,1.57-2.57,2.11,2.11,0,0,1,2.57,1.56c.12.48,2.77,11.83-3.57,32A2.12,2.12,0,0,1,727.9,762Z" class="a78f4919-5ac6-48a9-96dd-1f98ab3ab9e1"></path><path d="M529.62,422.84H512a2.14,2.14,0,0,1,0-4.27h17.62a2.14,2.14,0,0,1,0,4.27Z" class="a78f4919-5ac6-48a9-96dd-1f98ab3ab9e1"></path><path d="M455.2,441.37c-56.33,15.64-76.52,89.1-83,123.91a22.48,22.48,0,0,1-22.1,18.38H286.58c-17.3,0-29.89-16.15-25.22-32.45,17-59.36,44.09-189.91,168.42-196.46,117.62-6.2,303.58-43.68,329.74,165.91a25.72,25.72,0,0,1-23,28.94l-62.35,5.78a18.63,18.63,0,0,1-20.33-17c-2.24-27.78-14.81-77.68-74.93-89.8" class="a78f4919-5ac6-48a9-96dd-1f98ab3ab9e1"></path><path d="M428.75,337.78h26.59a0,0,0,0,1,0,0V387.5a0,0,0,0,1,0,0H422.63a21.8,21.8,0,0,1-21.8-21.8v0A27.92,27.92,0,0,1,428.75,337.78Z" class="b3893884-0a87-436e-bc06-50fd4587ebbe"></path><path d="M455.34,389.63H424.52a25.85,25.85,0,0,1-25.82-25.82v-2.34a25.85,25.85,0,0,1,25.82-25.82h30.82a2.13,2.13,0,0,1,2.13,2.13V387.5A2.13,2.13,0,0,1,455.34,389.63Zm-30.82-49.71A21.58,21.58,0,0,0,403,361.47v2.34a21.59,21.59,0,0,0,21.55,21.56h28.69V339.92Z" class="a78f4919-5ac6-48a9-96dd-1f98ab3ab9e1"></path><path transform="translate(1225.95 725.28) rotate(-180)" d="M610.58,337.78h29.65a0,0,0,0,1,0,0V387.5a0,0,0,0,1,0,0H610.58a24.86,24.86,0,0,1-24.86-24.86v0a24.86,24.86,0,0,1,24.86-24.86Z" class="b3893884-0a87-436e-bc06-50fd4587ebbe"></path><path d="M616.54,389.63H585.72a2.13,2.13,0,0,1-2.13-2.13V337.78a2.13,2.13,0,0,1,2.13-2.13h30.82a25.85,25.85,0,0,1,25.82,25.82v2.34A25.85,25.85,0,0,1,616.54,389.63Zm-28.68-4.26h28.68a21.59,21.59,0,0,0,21.56-21.56v-2.34a21.58,21.58,0,0,0-21.56-21.55H587.86Z" class="a78f4919-5ac6-48a9-96dd-1f98ab3ab9e1"></path><path d="M935.41,335.14a2.13,2.13,0,0,1-1.67-.81L910.57,305a2.13,2.13,0,1,1,3.34-2.64l23.17,29.32a2.13,2.13,0,0,1-1.67,3.45Z" class="a78f4919-5ac6-48a9-96dd-1f98ab3ab9e1"></path><path d="M912.24,335.14a2.13,2.13,0,0,1-1.67-3.45l23.17-29.32a2.13,2.13,0,0,1,3.34,2.64l-23.17,29.32A2.13,2.13,0,0,1,912.24,335.14Z" class="a78f4919-5ac6-48a9-96dd-1f98ab3ab9e1"></path><path d="M184.82,613.39a2.13,2.13,0,0,1-2.12-1.91l-4-37.15a2.13,2.13,0,1,1,4.24-.45l4,37.15a2.13,2.13,0,0,1-1.89,2.35Z" class="a78f4919-5ac6-48a9-96dd-1f98ab3ab9e1"></path><path d="M165.22,601a2.13,2.13,0,0,1-.71-4.14l35.24-12.44a2.13,2.13,0,1,1,1.42,4l-35.24,12.44A2.25,2.25,0,0,1,165.22,601Z" class="a78f4919-5ac6-48a9-96dd-1f98ab3ab9e1"></path><path d="M938,425.59c-4.78,0-9.18-3.36-13.08-10-3.08-5.25-6.24-8-9.13-8.08h-.07c-3.63,0-6.73,4.3-7.9,6.15a29,29,0,0,1-6.44,7.6c-7.46,5.86-15.36,4.84-21.69-2.76-3.14-3.77-6.14-5.68-8.92-5.68s-4.93,1.91-6.27,3.52c-3,3.58-5.88,5.89-8.88,7.09-4.31,1.7-10.76,2.36-17.06-4.22-2.5-2.61-5-3.81-7.56-3.58-4.91.44-8.62,6-8.66,6a2.13,2.13,0,0,1-3.57-2.34c.2-.3,4.85-7.3,11.82-7.94,3.87-.38,7.61,1.28,11,4.88,3.74,3.9,7.91,5,12.4,3.2,2.32-.92,4.67-2.83,7.18-5.85,1.92-2.3,5.14-5.05,9.55-5.06h0c4.1,0,8.21,2.43,12.19,7.22,4.93,5.91,10.09,6.61,15.78,2.14a25.14,25.14,0,0,0,5.47-6.52c1.94-3.07,5.93-8.18,11.64-8.15,4.52.07,8.81,3.49,12.75,10.18,3.07,5.24,6.24,7.89,9.4,7.89H938c4.56-.05,8.75-5.74,10-7.93a2.14,2.14,0,0,1,3.73,2.08c-.23.4-5.68,10-13.65,10.12Z" class="a78f4919-5ac6-48a9-96dd-1f98ab3ab9e1"></path><path d="M266.84,308.08c-4.78,0-9.18-3.36-13.08-10-3.08-5.24-6.24-8-9.13-8.07h-.07c-3.64,0-6.73,4.3-7.89,6.16a29.44,29.44,0,0,1-6.45,7.6c-7.45,5.85-15.35,4.85-21.69-2.76-3.14-3.77-6.14-5.69-8.92-5.69s-4.93,1.92-6.27,3.52c-3,3.58-5.89,5.9-8.89,7.1-4.29,1.7-10.74,2.36-17-4.22-2.5-2.62-5.07-3.79-7.57-3.59-4.87.45-8.61,6-8.64,6a2.15,2.15,0,0,1-3,.62,2.13,2.13,0,0,1-.61-2.95c.19-.3,4.84-7.3,11.81-7.94,3.89-.39,7.61,1.28,11.06,4.88,3.74,3.9,7.91,5,12.39,3.2,2.32-.92,4.67-2.84,7.19-5.85,1.91-2.31,5.13-5.06,9.54-5.06h0c4.11,0,8.21,2.43,12.2,7.21,4.92,5.92,10.08,6.62,15.77,2.14a25.1,25.1,0,0,0,5.47-6.51c1.92-3.06,5.95-8.16,11.51-8.16h.13c4.52.06,8.81,3.49,12.75,10.18,3.08,5.23,6.24,7.89,9.4,7.89h.06c4.56-.05,8.75-5.75,10-7.94a2.14,2.14,0,0,1,3.73,2.08c-.23.41-5.68,10-13.65,10.12Z" class="a78f4919-5ac6-48a9-96dd-1f98ab3ab9e1"></path><path d="M108.19,972.84H108c-14.76-.17-25.1-18.42-25.53-19.2a2.13,2.13,0,1,1,3.72-2.08c.1.17,9.58,16.88,21.87,17h.15c7.16,0,14.13-5.68,20.72-16.89,7.49-12.73,15.48-19.25,23.75-19.37h.23c10.12,0,17.67,9.6,21.28,15.35,3.84,6.12,7.59,10.57,11.47,13.62,12.35,9.71,24,8.16,34.63-4.6,7.57-9.1,15.25-13.71,22.82-13.71,8,0,13.94,5.1,17.5,9.37,5.28,6.34,10.27,10.38,15.28,12.37,9.88,3.93,19,1.6,27.21-6.94,6.44-6.72,13.31-9.81,20.43-9.14,13,1.2,21.74,14.41,22.11,15a2.13,2.13,0,1,1-3.57,2.33c-.08-.12-8.05-12.06-18.95-13.06-5.77-.56-11.45,2.11-16.94,7.84-11.82,12.35-23.86,11.14-31.87,8-5.69-2.26-11.24-6.71-17-13.6-3-3.58-7.86-7.84-14.22-7.84s-12.82,4.09-19.54,12.17c-16.25,19.5-32.38,11.64-40.55,5.22-4.27-3.35-8.34-8.16-12.45-14.7-3.16-5-9.7-13.53-17.82-13.35-6.69.1-13.46,5.91-20.14,17.27C125.17,966.46,117,972.84,108.19,972.84Z" class="a78f4919-5ac6-48a9-96dd-1f98ab3ab9e1"></path><path d="M435.12,255.32H605.95a0,0,0,0,1,0,0V384.54A85.42,85.42,0,0,1,520.53,470h0a85.42,85.42,0,0,1-85.42-85.42V255.32a0,0,0,0,1,0,0Z" class="b3893884-0a87-436e-bc06-50fd4587ebbe"></path><path d="M523.45,472.09h-5.83A84.74,84.74,0,0,1,433,387.45V255.32a2.13,2.13,0,0,1,2.14-2.13H606a2.13,2.13,0,0,1,2.13,2.13V387.45A84.73,84.73,0,0,1,523.45,472.09Zm-86.2-214.63v130a80.46,80.46,0,0,0,80.37,80.37h5.83a80.46,80.46,0,0,0,80.37-80.37v-130Z" class="a78f4919-5ac6-48a9-96dd-1f98ab3ab9e1"></path><circle r="45.59" cy="205.06" cx="571.72" class="b3893884-0a87-436e-bc06-50fd4587ebbe"></circle><path d="M571.72,252.78a47.73,47.73,0,1,1,47.73-47.72A47.78,47.78,0,0,1,571.72,252.78Zm0-91.18a43.46,43.46,0,1,0,43.46,43.46A43.51,43.51,0,0,0,571.72,161.6Z" class="e40558f1-81f3-4372-b5c4-21eaabaf7f7b"></path><path d="M603.8,184a2,2,0,0,1-.42,0,2.13,2.13,0,0,1-1.67-2.5c.07-.38,1.88-9.18,9-12.89,4.35-2.29,9.61-2.13,15.63.49a2.13,2.13,0,0,1,1.11,2.8,2.16,2.16,0,0,1-2.81,1.11c-4.76-2.07-8.78-2.28-11.93-.64-5.27,2.75-6.77,9.89-6.79,10A2.13,2.13,0,0,1,603.8,184Z" class="e40558f1-81f3-4372-b5c4-21eaabaf7f7b"></path><path d="M588.38,177.58a2.13,2.13,0,0,1-1.51-3.64c7.46-7.46,0-27.82-3.5-35a2.14,2.14,0,0,1,3.84-1.87c.57,1.18,13.8,28.79,2.68,39.92A2.15,2.15,0,0,1,588.38,177.58Z" class="e40558f1-81f3-4372-b5c4-21eaabaf7f7b"></path><path d="M626.87,225.44c.07-.77.12-1.55.12-2.34,0-14.83-12.81-26.85-28.62-26.85a30.13,30.13,0,0,0-11.06,2.08c-8.69-8.46-21.74-13.84-36.33-13.84-15,0-28.41,5.72-37.09,14.62a42.42,42.42,0,0,0-28.76-11c-16.93,0-31.46,9.6-37.78,23.3a31.1,31.1,0,0,0-12.23-2.52c-16.16,0-29.53,12.36-32.11,28.55-11.59,5.22-19.53,15.79-19.53,28,0,14.06,10.51,26,25,30a35.34,35.34,0,0,0,62.84,6.65,39.68,39.68,0,0,0,49-5.11c7.51,10.78,19.42,17.78,32.87,17.78a39.39,39.39,0,0,0,27.72-11.65,50.16,50.16,0,0,0,25.26,6.76c26.41,0,47.81-19.89,47.81-44.43C653.94,247.8,642.87,232.62,626.87,225.44Z" class="a78f4919-5ac6-48a9-96dd-1f98ab3ab9e1"></path><path d="M412,297.06s12.8,34.13,8.54,42.67c0,0,4.26-4.27,12.8,0V309.86Z" class="a78f4919-5ac6-48a9-96dd-1f98ab3ab9e1"></path><path d="M625.31,297.06s-12.8,34.13-8.54,42.67c0,0-4.26-4.27-12.8,0V309.86Z" class="a78f4919-5ac6-48a9-96dd-1f98ab3ab9e1"></path><path d="M484,385.36a26.38,26.38,0,0,1-9.62-1.84A26.07,26.07,0,0,1,460,369.57a21.44,21.44,0,0,1,11.09-28.18,17.57,17.57,0,0,1,23.11,9.1,14.49,14.49,0,0,1-7.5,19.05,12,12,0,0,1-15.8-6.23,10,10,0,0,1,5.2-13.19,8.44,8.44,0,0,1,11.12,4.37,2.13,2.13,0,1,1-3.91,1.7,4.18,4.18,0,0,0-5.51-2.16,5.78,5.78,0,0,0-3,7.58,7.75,7.75,0,0,0,10.19,4,10.22,10.22,0,0,0,5.29-13.43,13.3,13.3,0,0,0-17.49-6.89,17.18,17.18,0,0,0-8.89,22.57,22,22,0,0,0,28.91,11.38,2.14,2.14,0,0,1,1.7,3.92A26.17,26.17,0,0,1,484,385.36Z" class="a78f4919-5ac6-48a9-96dd-1f98ab3ab9e1"></path><path d="M569.31,385.34a26.27,26.27,0,0,1-24.1-15.77,21.44,21.44,0,0,1,11.1-28.18,17.54,17.54,0,0,1,23.1,9.1,14.46,14.46,0,0,1-7.5,19.05,12,12,0,0,1-15.79-6.23,10,10,0,0,1,5.19-13.19,8.44,8.44,0,0,1,11.12,4.37,2.13,2.13,0,1,1-3.91,1.7A4.17,4.17,0,0,0,563,354a5.76,5.76,0,0,0-3,7.58,7.74,7.74,0,0,0,10.18,4,10.2,10.2,0,0,0,5.29-13.43A13.29,13.29,0,0,0,558,345.3a17.18,17.18,0,0,0-8.89,22.57A22,22,0,0,0,578,379.25a2.14,2.14,0,1,1,1.7,3.92A26.21,26.21,0,0,1,569.31,385.34Z" class="a78f4919-5ac6-48a9-96dd-1f98ab3ab9e1"></path><path d="M542.12,412.42H498.94a2.13,2.13,0,0,1,0-4.26h43.18a2.13,2.13,0,1,1,0,4.26Z" class="a78f4919-5ac6-48a9-96dd-1f98ab3ab9e1"></path><path d="M839.56,233.94c22.77,16.16,65.67-23.8,75.28,16s-54.46,39.8-70.47,33c-15.45-6.56-34.61,49.78-97,11.49a18.77,18.77,0,0,0-15.11-2.07c-14.92,4.4-45.87,10.93-48.9-9.42,0,0-6.86-18.2,18.16-20.91A20.13,20.13,0,0,0,712.77,257a46.45,46.45,0,0,1,34.55-11.77,25.4,25.4,0,0,0,20.19-7.42C779.35,225.51,804.31,208.94,839.56,233.94Z" class="b3893884-0a87-436e-bc06-50fd4587ebbe"></path><path d="M787.73,310.09c-11.33,0-24.92-3.68-41.45-13.83a16.64,16.64,0,0,0-13.39-1.84c-11.6,3.42-32.76,8.07-44.09.84a16.4,16.4,0,0,1-7.49-11.79c-.46-1.36-2.42-8.11,1.34-14.23,3.2-5.19,9.48-8.32,18.67-9.32a18,18,0,0,0,10-4.55,48.89,48.89,0,0,1,36.12-12.31A23.31,23.31,0,0,0,766,236.29c12.23-12.67,38.23-30,74.81-4.09h0c8.7,6.18,21.24,3.27,33.36.47,17.18-4,36.66-8.5,42.76,16.78,2.72,11.29,0,20.82-8,27.57-17.44,14.78-54,12.74-65.38,7.89-3.71-1.56-8.63,2.38-14.86,7.38C819.11,300,806.51,310.09,787.73,310.09Zm-50.24-20.6a21.16,21.16,0,0,1,11,3.13C789.86,318,811.6,300.53,826,289c7.35-5.9,13.15-10.57,19.21-8,10.37,4.39,45,6.27,60.95-7.22,6.75-5.72,9-13.57,6.62-23.32-5.11-21.17-20.19-17.68-37.65-13.63-13,3-26.52,6.15-36.79-1.14h0c-34-24.11-58-8.11-69.29,3.57a27.51,27.51,0,0,1-21.87,8.07,44.49,44.49,0,0,0-33,11.23,22.27,22.27,0,0,1-12.41,5.62c-7.79.84-13,3.29-15.47,7.28-3,4.88-.94,10.69-.92,10.75a2.18,2.18,0,0,1,.11.44,12.19,12.19,0,0,0,5.6,9c7.23,4.61,22,4.12,40.59-1.34A20.45,20.45,0,0,1,737.49,289.49Z" class="a78f4919-5ac6-48a9-96dd-1f98ab3ab9e1"></path><path d="M191.93,176.26c15.88,11.27,45.79-16.59,52.49,11.17s-38,27.75-49.14,23c-10.77-4.57-24.13,34.71-67.61,8A13.08,13.08,0,0,0,117.13,217c-10.41,3.06-32,7.61-34.1-6.58,0,0-4.78-12.69,12.67-14.57a14.13,14.13,0,0,0,7.82-3.55,32.41,32.41,0,0,1,24.09-8.21,17.68,17.68,0,0,0,14.08-5.17C149.94,170.38,167.35,158.83,191.93,176.26Z" class="b3893884-0a87-436e-bc06-50fd4587ebbe"></path><path d="M155.68,229.89c-8,0-17.61-2.55-29.13-9.62a11,11,0,0,0-8.82-1.22c-10,2.95-23.57,5.43-31.28.51A12,12,0,0,1,81,211c-.37-1.14-1.7-6,1-10.41,2.33-3.8,6.87-6.09,13.5-6.8a12,12,0,0,0,6.63-3A34.66,34.66,0,0,1,127.76,182a15.63,15.63,0,0,0,12.39-4.52c8.68-9,27.11-21.3,53-2.93h0c5.83,4.14,14.43,2.15,22.74.22,12.27-2.85,26.19-6.07,30.59,12.19,2,8.12,0,15-5.79,19.86-12.35,10.47-38.19,9-46.26,5.61-2.24-1-5.54,1.7-9.71,5.06C178.34,222.59,169.25,229.89,155.68,229.89Zm-34.93-15.54a15.38,15.38,0,0,1,8,2.28c28.43,17.45,42.79,5.92,53.28-2.5,5.08-4.09,9.47-7.6,14.05-5.66,6.92,2.94,31.1,4.15,41.83-4.93,4.57-3.87,6-9,4.41-15.61-3.25-13.46-11.8-12.19-25.48-9-9.24,2.14-18.78,4.35-26.18-.9-23.3-16.53-39.74-5.58-47.47,2.42a19.8,19.8,0,0,1-15.76,5.81,30.3,30.3,0,0,0-22.52,7.68,16.23,16.23,0,0,1-9,4.07c-5.21.56-8.68,2.16-10.3,4.76-2,3.13-.6,6.92-.59,6.95a2.26,2.26,0,0,1,.11.43A7.9,7.9,0,0,0,88.75,216c4.89,3.12,15,2.75,27.78-1A14.8,14.8,0,0,1,120.75,214.35Z" class="a78f4919-5ac6-48a9-96dd-1f98ab3ab9e1"></path><path d="M359.43,214.64a2.19,2.19,0,0,1-1.12-.32l-58.86-36.38a2.13,2.13,0,1,1,2.24-3.63l58.86,36.38a2.13,2.13,0,0,1-1.12,3.95Z" class="a78f4919-5ac6-48a9-96dd-1f98ab3ab9e1"></path><path d="M371.45,199.64a2.14,2.14,0,0,1-1.92-1.19L346.7,152a2.13,2.13,0,0,1,3.83-1.88l22.83,46.46a2.13,2.13,0,0,1-1.91,3.07Z" class="a78f4919-5ac6-48a9-96dd-1f98ab3ab9e1"></path><path d="M348.62,227.27H308.43a2.14,2.14,0,0,1,0-4.27h40.19a2.14,2.14,0,0,1,0,4.27Z" class="a78f4919-5ac6-48a9-96dd-1f98ab3ab9e1"></path><path d="M406.28,321.31a16.13,16.13,0,0,0-15.08,11.06c-.88,2.61,3.24,3.73,4.11,1.14a11.77,11.77,0,0,1,11-7.94c2.75,0,2.75-4.31,0-4.26Z" class="a78f4919-5ac6-48a9-96dd-1f98ab3ab9e1"></path><path d="M383.05,343.52a37.59,37.59,0,0,0-18.68,6.07c-2.3,1.5-.16,5.19,2.15,3.68a33.23,33.23,0,0,1,16.53-5.48c2.73-.15,2.75-4.42,0-4.27Z" class="a78f4919-5ac6-48a9-96dd-1f98ab3ab9e1"></path><path d="M338.13,374a124.65,124.65,0,0,1,12.68-10.62c2.19-1.61.07-5.31-2.15-3.69A132.79,132.79,0,0,0,335.12,371c-2,1.9,1,4.92,3,3Z" class="a78f4919-5ac6-48a9-96dd-1f98ab3ab9e1"></path><path d="M314,400.28l9.65-10.17c1.89-2-1.13-5-3-3L311,397.27c-1.89,2,1.12,5,3,3Z" class="a78f4919-5ac6-48a9-96dd-1f98ab3ab9e1"></path><path d="M615.39,323.83a32.19,32.19,0,0,1,14.06,6.85c2.09,1.75,5.12-1.25,3-3a36.85,36.85,0,0,0-15.94-7.94c-2.68-.59-3.82,3.52-1.14,4.11Z" class="a78f4919-5ac6-48a9-96dd-1f98ab3ab9e1"></path><path d="M635.89,340.44l6.8,7.64c1.83,2.06,4.84-1,3-3l-6.8-7.65c-1.83-2.05-4.84,1-3,3Z" class="a78f4919-5ac6-48a9-96dd-1f98ab3ab9e1"></path><path d="M653.78,354.73a117.06,117.06,0,0,1,18.78,6.82c2.48,1.14,4.65-2.53,2.16-3.69a124.91,124.91,0,0,0-19.81-7.24c-2.65-.72-3.79,3.4-1.13,4.11Z" class="a78f4919-5ac6-48a9-96dd-1f98ab3ab9e1"></path><path d="M686.22,367.91a70.7,70.7,0,0,1,20.47,13.46c2,1.88,5-1.13,3-3a74,74,0,0,0-21.34-14.12c-2.49-1.08-4.67,2.59-2.15,3.68Z" class="a78f4919-5ac6-48a9-96dd-1f98ab3ab9e1"></path><path d="M719.52,393.79a74.57,74.57,0,0,1,12.2,14c1.52,2.27,5.22.13,3.69-2.16a79.19,79.19,0,0,0-12.88-14.89c-2-1.83-5.06,1.18-3,3Z" class="a78f4919-5ac6-48a9-96dd-1f98ab3ab9e1"></path><path d="M739.19,422.74a39.92,39.92,0,0,1,5.42,8.36c1.2,2.47,4.88.31,3.68-2.15a43.55,43.55,0,0,0-6.08-9.22c-1.78-2.1-4.79.93-3,3Z" class="a78f4919-5ac6-48a9-96dd-1f98ab3ab9e1"></path><path d="M264.41,642.53v46.7H129.85v59.64h70.09q20.49,0,32.57,3.14a48.14,48.14,0,0,1,20.66,11q23.13,20.81,23.14,60.82,0,50.63-35.7,70.24-18.86,10.22-60.83,10.2H83.24V858h96.54q19.83,0,30.41-3.93a20.58,20.58,0,0,0,10.41-10A36.24,36.24,0,0,0,224.41,827a39.89,39.89,0,0,0-4.3-19q-4.31-8-11.24-10.4-5.62-2-29.09-2.36H83.24V642.53Z" class="e40558f1-81f3-4372-b5c4-21eaabaf7f7b"></path><path d="M798.93,858H943.08v46.3H752.32V834.81q-.68-43.95,18.51-67.1,8.92-10.2,19.51-13.74t33.06-3.53h36q18.18,0,25.79-5.1,11.91-8.24,11.9-24.33,0-17.65-10.91-25.89-8.26-5.89-26.78-5.89H755.62v-46.7H869.35q42.31,0,58.85,16.88,9.91,9.42,15.21,25.31a108.23,108.23,0,0,1,5.29,34.33q0,22.76-6.61,40.22T923.9,785q-17.19,12.16-51.57,12.17H841.25q-16.53,0-24.63,2.35a20.39,20.39,0,0,0-12.07,8.63q-5.28,6.28-5.62,26.69Z" class="e40558f1-81f3-4372-b5c4-21eaabaf7f7b"></path><path d="M514.14,641.36q62.16,0,87.94,39.23,21.82,33.36,21.82,93,0,71-28.76,103.6-26.11,28.63-75,28.64-65.46,0-93.23-42.77-20.49-32.17-20.49-90.25,0-67.11,26.28-99.08T514.14,641.36Zm-1,43.55a49.17,49.17,0,0,0-26.94,7.66A48.45,48.45,0,0,0,467.86,714q-4.31,8.64-7.11,24.92a185.9,185.9,0,0,0-2.81,31.58,211.57,211.57,0,0,0,3,35.32q3,17.65,7.27,27.47,12.9,28.65,49.59,28.64,20.16,0,31.08-9.81,15.2-13.34,19.83-39.63a234.7,234.7,0,0,0,3.64-41.2,168.55,168.55,0,0,0-4-37.47q-4-17.46-10.58-27.28A45.41,45.41,0,0,0,539.27,691,64.11,64.11,0,0,0,513.15,684.91Z" class="e40558f1-81f3-4372-b5c4-21eaabaf7f7b"></path><circle r="19.07" cy="464.75" cx="182.84" class="b3893884-0a87-436e-bc06-50fd4587ebbe"></circle><path d="M182.84,486A21.21,21.21,0,1,1,204,464.75,21.23,21.23,0,0,1,182.84,486Zm0-38.15a16.94,16.94,0,1,0,16.94,16.94A17,17,0,0,0,182.84,447.81Z" class="e40558f1-81f3-4372-b5c4-21eaabaf7f7b"></path><path d="M834.71,602.09c-14.49,0-31.41-3.62-44.71-16.92-29.11-29.11-10.07-76.83-9.87-77.31l4,1.61c-.19.45-18.16,45.59,8.94,72.68s71,10.92,71.41,10.75l1.52,4A98.68,98.68,0,0,1,834.71,602.09Z" class="a78f4919-5ac6-48a9-96dd-1f98ab3ab9e1"></path><path d="M791.71,559a2.1,2.1,0,0,1-1.51-.63,20.68,20.68,0,0,1-4.32-6.66,2.14,2.14,0,0,1,3.94-1.65,16.2,16.2,0,0,0,3.4,5.29,2.14,2.14,0,0,1-1.51,3.65Zm-6.52-18.45a2.12,2.12,0,0,1-2.12-2c-.12-1.67-.17-3.29-.17-4.78a68.23,68.23,0,0,1,.49-8.44,2.13,2.13,0,0,1,4.23.58,63.83,63.83,0,0,0-.45,7.86c0,1.4,0,2.92.15,4.48a2.13,2.13,0,0,1-2,2.28Z" class="a78f4919-5ac6-48a9-96dd-1f98ab3ab9e1"></path><path d="M832.78,588.29h-.15a52.27,52.27,0,0,1-13-2.59,2.13,2.13,0,1,1,1.36-4,48,48,0,0,0,12,2.37,2.13,2.13,0,0,1-.15,4.26Zm-23.94-8.17a2.11,2.11,0,0,1-1.2-.38,40.11,40.11,0,0,1-9.88-9.27,2.13,2.13,0,0,1,3.51-2.42,37,37,0,0,0,8.78,8.17,2.14,2.14,0,0,1-1.21,3.9Z" class="a78f4919-5ac6-48a9-96dd-1f98ab3ab9e1"></path><path d="M414.91,356.19s15.4-3.36,20.21,6.45" class="b3893884-0a87-436e-bc06-50fd4587ebbe"></path><path d="M435.12,364.77a2.12,2.12,0,0,1-1.92-1.19c-4-8.21-17.7-5.34-17.84-5.31a2.13,2.13,0,0,1-.91-4.16c.69-.15,17.1-3.59,22.58,7.59a2.14,2.14,0,0,1-1,2.86A2.21,2.21,0,0,1,435.12,364.77Z" class="a78f4919-5ac6-48a9-96dd-1f98ab3ab9e1"></path><path d="M626.17,356.09s-15.41-3.36-20.21,6.45" class="b3893884-0a87-436e-bc06-50fd4587ebbe"></path><path d="M606,364.67a2.09,2.09,0,0,1-.94-.22,2.13,2.13,0,0,1-1-2.85c5.48-11.19,21.89-7.75,22.58-7.6a2.13,2.13,0,1,1-.91,4.17c-.13,0-13.83-2.88-17.83,5.3A2.14,2.14,0,0,1,606,364.67Z" class="a78f4919-5ac6-48a9-96dd-1f98ab3ab9e1"></path><rect height="1024" width="1024" class="a6a03a39-3570-4416-b587-938e54b6110e"></rect></svg>