<?xml version="1.0" standalone="no"?><!DOCTYPE svg PUBLIC "-//W3C//DTD SVG 1.1//EN" "http://www.w3.org/Graphics/SVG/1.1/DTD/svg11.dtd"><svg height="1024" node-id="1" sillyvg="true" template-height="1024" template-width="1024" version="1.1" viewBox="0 0 1024 1024" width="1024" xmlns="http://www.w3.org/2000/svg" xmlns:xlink="http://www.w3.org/1999/xlink"><defs node-id="54"></defs><g node-id="154"><path d="M 922.13 491.87 C 921.20 491.66 920.29 491.39 919.40 491.05 L 882.00 476.50 L 881.78 476.45 C 881.74 476.42 881.70 476.39 881.65 476.37 L 860.58 468.18 C 859.20 467.61 857.86 466.94 856.58 466.18 C 852.29 463.75 847.14 463.23 841.98 463.68 C 831.94 467.26 822.30 471.87 813.20 477.42 C 811.78 478.33 810.05 478.64 808.40 478.28 C 806.75 477.92 805.32 476.91 804.41 475.49 C 802.51 472.52 803.36 468.57 806.32 466.65 C 807.52 465.87 825.63 454.33 847.47 448.60 C 756.02 350.81 742.96 131.60 471.47 120.80 C 469.22 133.61 469.59 146.67 470.27 155.20 C 470.41 155.70 470.46 156.23 470.40 156.75 C 470.83 161.62 471.33 164.69 471.35 164.81 C 471.94 168.28 469.60 171.58 466.13 172.18 C 465.78 172.24 465.42 172.27 465.06 172.27 C 461.95 172.26 459.30 170.01 458.79 166.94 C 458.55 165.51 454.96 143.40 458.63 120.45 C 455.89 120.39 453.16 120.33 450.34 120.33 C 212.90 120.33 142.17 268.67 121.34 366.00 C 117.21 385.29 116.67 414.39 117.88 442.81 C 136.33 453.13 157.28 457.15 157.61 457.21 C 161.04 457.89 163.28 461.20 162.66 464.64 C 162.03 468.07 158.76 470.37 155.31 469.80 C 154.72 469.69 150.64 468.91 144.67 467.25 C 135.55 465.91 126.74 462.94 118.67 458.49 C 119.88 477.07 121.67 494.49 123.67 507.49 C 128.54 540.20 126.09 572.31 100.22 675.69 C 22.06 988.00 347.00 816.43 656.46 878.74 C 965.15 940.88 1094.68 531.33 922.13 491.87 Z" fill="#e61f19" fill-opacity="0.2" fill-rule="nonzero" group-id="1" node-id="58" stroke="none" target-height="867.67" target-width="1072.62" target-x="22.06" target-y="120.33"></path></g><g node-id="155"><path d="M 618.18 931.31 L 569.50 931.31 L 569.50 931.31 L 569.50 881.59 L 569.50 881.59 L 618.18 881.59 L 619.69 881.80 L 620.98 882.34 L 622.10 883.22 L 622.98 884.34 L 623.52 885.63 L 623.73 887.14 L 623.73 925.75 L 623.54 927.21 L 623.00 928.51 L 622.11 929.68 L 620.94 930.58 L 619.64 931.11 L 618.18 931.31 Z" fill="#ffffff" fill-rule="nonzero" group-id="2" node-id="63" stroke="none" target-height="49.71997" target-width="54.22998" target-x="569.5" target-y="881.59"></path></g><path d="M 600.17 933.44 L 569.51 933.44 C 568.33 933.44 567.38 932.49 567.38 931.31 L 567.38 881.59 C 567.38 880.41 568.33 879.46 569.51 879.46 L 600.17 879.46 C 614.39 879.52 625.88 891.06 625.86 905.28 L 625.86 907.62 C 625.88 921.84 614.39 933.38 600.17 933.44 Z M 571.63 929.18 L 600.17 929.18 C 612.04 929.14 621.63 919.49 621.61 907.62 L 621.61 905.28 C 621.63 893.41 612.04 883.77 600.17 883.73 L 571.63 883.73 Z" fill="#040000" fill-rule="nonzero" node-id="66" stroke="none" target-height="53.97998" target-width="58.5" target-x="567.38" target-y="879.46"></path><path d="M 606.76 903.51 C 606.76 903.51 591.43 900.14 586.65 909.95" fill="#ffffff" fill-rule="nonzero" node-id="68" stroke="none" target-height="9.809998" target-width="20.109985" target-x="586.65" target-y="900.14"></path><path d="M 586.65 912.09 C 586.33 912.09 586.01 912.01 585.72 911.87 C 585.21 911.62 584.81 911.18 584.63 910.65 C 584.44 910.11 584.47 909.52 584.72 909.01 C 590.17 897.83 606.49 901.27 607.18 901.42 C 608.33 901.67 609.06 902.80 608.82 903.96 C 608.57 905.11 607.43 905.84 606.28 905.59 C 606.14 905.59 592.52 902.71 588.53 910.89 C 588.18 911.61 587.45 912.08 586.65 912.09 Z" fill="#040000" fill-rule="nonzero" node-id="70" stroke="none" target-height="14.26001" target-width="24.619995" target-x="584.44" target-y="897.83"></path><path d="M 383.08 881.59 L 431.76 881.59 L 431.76 881.59 L 431.76 931.31 L 431.76 931.31 L 383.08 931.31 C 380.01 931.31 377.53 928.83 377.53 925.76 L 377.53 887.15 C 377.53 884.08 380.01 881.60 383.08 881.60 Z" fill="#ffffff" fill-rule="nonzero" node-id="72" stroke="none" target-height="49.71997" target-width="54.23001" target-x="377.53" target-y="881.59"></path><path d="M 431.76 933.44 L 401.10 933.44 C 386.88 933.39 375.38 921.84 375.40 907.62 L 375.40 905.28 C 375.38 891.06 386.88 879.51 401.10 879.46 L 431.76 879.46 C 432.32 879.46 432.86 879.68 433.26 880.08 C 433.66 880.48 433.88 881.03 433.88 881.59 L 433.88 931.31 C 433.88 931.87 433.66 932.42 433.26 932.82 C 432.86 933.22 432.32 933.44 431.76 933.44 Z M 401.10 883.73 C 389.23 883.77 379.63 893.41 379.65 905.28 L 379.65 907.62 C 379.63 919.49 389.23 929.14 401.10 929.18 L 429.63 929.18 L 429.63 883.73 Z" fill="#040000" fill-rule="nonzero" node-id="74" stroke="none" target-height="53.97998" target-width="58.5" target-x="375.38" target-y="879.46"></path><path d="M 394.51 903.51 C 394.51 903.51 409.83 900.14 414.61 909.95" fill="#ffffff" fill-rule="nonzero" node-id="76" stroke="none" target-height="9.809998" target-width="20.099976" target-x="394.51" target-y="900.14"></path><path d="M 414.61 912.09 C 413.80 912.09 413.06 911.62 412.70 910.89 C 408.70 902.71 395.09 905.56 394.96 905.59 C 393.81 905.84 392.67 905.11 392.42 903.96 C 392.17 902.81 392.90 901.67 394.05 901.42 C 394.74 901.27 411.05 897.83 416.52 909.02 C 417.03 910.08 416.58 911.36 415.52 911.87 C 415.24 912.01 414.93 912.09 414.61 912.09 Z" fill="#040000" fill-rule="nonzero" node-id="78" stroke="none" target-height="14.26001" target-width="24.859985" target-x="392.17" target-y="897.83"></path><path d="M 691.92 218.13 C 675.92 218.13 658.31 208.65 657.38 208.13 C 656.35 207.56 655.97 206.27 656.53 205.24 C 656.79 204.74 657.24 204.37 657.78 204.21 C 658.32 204.05 658.91 204.11 659.40 204.38 C 659.67 204.52 686.07 218.69 701.66 212.10 C 705.75 210.40 708.97 207.12 710.60 203.00 C 704.84 201.61 699.92 197.86 697.81 194.00 C 696.32 191.29 696.28 188.57 697.70 186.56 C 699.89 183.47 702.32 181.80 704.91 181.56 C 707.30 181.37 709.63 182.41 711.84 184.65 C 715.55 188.52 717.17 193.94 716.18 199.21 C 722.77 198.77 728.18 193.89 731.73 185.09 C 731.98 184.34 732.64 183.79 733.42 183.67 C 734.21 183.54 734.99 183.87 735.46 184.51 C 735.93 185.15 736.01 186.00 735.66 186.71 C 730.27 199.94 722.17 203.13 716.33 203.47 C 715.87 203.47 715.41 203.47 714.95 203.47 C 713.01 209.10 708.78 213.64 703.30 215.96 C 699.69 217.43 695.82 218.17 691.92 218.13 Z M 705.45 185.88 L 705.25 185.88 C 703.65 186.01 702.14 187.69 701.16 189.08 C 700.56 189.93 701.16 191.26 701.53 191.97 C 703.15 194.97 707.23 197.97 711.93 198.97 C 712.83 194.95 711.67 190.74 708.83 187.75 C 707.99 186.71 706.78 186.03 705.45 185.88 Z" fill="#231815" fill-rule="nonzero" node-id="80" stroke="none" target-height="37.320007" target-width="80.04004" target-x="655.97" target-y="181.37"></path><path d="M 360.31 226.66 C 359.94 226.66 359.58 226.56 359.26 226.38 C 358.24 225.79 357.89 224.49 358.47 223.47 L 376.83 191.00 C 377.10 190.51 377.56 190.14 378.11 189.99 C 378.65 189.84 379.23 189.92 379.72 190.20 C 380.21 190.48 380.57 190.95 380.72 191.49 C 380.87 192.04 380.79 192.62 380.51 193.11 L 362.16 225.60 C 361.78 226.26 361.07 226.67 360.31 226.66 Z" fill="#040000" fill-rule="nonzero" node-id="82" stroke="none" target-height="36.83" target-width="22.97998" target-x="357.89" target-y="189.84"></path><path d="M 387.34 215.64 C 387.14 215.64 386.94 215.61 386.75 215.55 L 351.05 205.11 C 349.92 204.78 349.27 203.60 349.60 202.47 C 349.92 201.33 351.11 200.68 352.24 201.01 L 387.93 211.45 C 388.94 211.75 389.58 212.75 389.44 213.80 C 389.29 214.85 388.40 215.63 387.34 215.64 Z" fill="#040000" fill-rule="nonzero" node-id="84" stroke="none" target-height="14.960007" target-width="40.309998" target-x="349.27" target-y="200.68"></path><path d="M 182.26 529.35 C 177.50 529.35 173.12 525.99 169.26 519.35 C 166.20 514.10 163.06 511.35 160.18 511.27 L 160.12 511.27 C 156.50 511.27 153.42 515.56 152.26 517.42 C 150.57 520.30 148.40 522.87 145.84 525.02 C 138.43 530.88 130.57 529.86 124.26 522.26 C 121.14 518.49 118.15 516.58 115.39 516.58 C 112.63 516.58 110.49 518.49 109.15 520.10 C 106.15 523.68 103.30 526.00 100.31 527.19 C 96.03 528.90 89.62 529.55 83.31 522.97 C 80.83 520.36 78.31 519.14 75.79 519.39 C 70.91 519.83 67.22 525.39 67.18 525.39 C 66.87 525.86 66.39 526.19 65.84 526.31 C 65.29 526.42 64.71 526.31 64.24 526.00 C 63.26 525.35 62.99 524.03 63.63 523.05 C 63.82 522.76 68.45 515.76 75.39 515.11 C 79.23 514.76 82.95 516.39 86.39 519.99 C 90.11 523.90 94.26 524.99 98.73 523.20 C 101.04 522.27 103.37 520.36 105.87 517.34 C 107.78 515.03 110.98 512.28 115.37 512.28 C 119.45 512.28 123.54 514.71 127.50 519.50 C 132.40 525.41 137.50 526.11 143.20 521.64 C 145.37 519.79 147.21 517.59 148.64 515.12 C 150.55 512.12 154.57 506.97 160.09 506.97 L 160.23 506.97 C 164.72 507.04 168.99 510.46 172.91 517.16 C 175.97 522.39 179.12 525.04 182.26 525.04 L 182.32 525.04 C 186.86 525.04 191.03 519.30 192.25 517.11 C 192.52 516.62 192.98 516.25 193.52 516.10 C 194.07 515.95 194.65 516.01 195.14 516.29 C 196.16 516.87 196.52 518.16 195.96 519.19 C 195.73 519.60 190.31 529.19 182.38 529.31 Z" fill="#040000" fill-rule="nonzero" node-id="86" stroke="none" target-height="23.910004" target-width="133.53" target-x="62.99" target-y="506.97"></path><path d="M 182.26 554.66 C 177.50 554.66 173.12 551.30 169.26 544.66 C 166.20 539.42 163.06 536.66 160.18 536.58 L 160.12 536.58 C 156.50 536.58 153.42 540.88 152.26 542.74 C 150.57 545.62 148.40 548.19 145.84 550.34 C 138.43 556.19 130.57 555.18 124.26 547.57 C 121.14 543.80 118.15 541.89 115.39 541.89 C 112.63 541.89 110.49 543.81 109.15 545.41 C 106.15 548.99 103.30 551.31 100.31 552.50 C 96.03 554.21 89.62 554.87 83.31 548.29 C 80.83 545.68 78.31 544.47 75.79 544.70 C 70.91 545.15 67.22 550.70 67.18 550.70 C 66.79 551.39 66.04 551.80 65.25 551.77 C 64.46 551.74 63.75 551.27 63.41 550.55 C 63.07 549.84 63.15 548.99 63.63 548.36 C 63.82 548.06 68.45 541.06 75.39 540.41 C 79.23 540.05 82.95 541.70 86.39 545.30 C 90.11 549.20 94.26 550.30 98.73 548.50 C 101.04 547.57 103.37 545.66 105.87 542.65 C 107.78 540.34 110.98 537.59 115.37 537.59 C 119.45 537.59 123.54 540.01 127.50 544.80 C 132.40 550.71 137.50 551.42 143.20 546.94 C 145.37 545.10 147.21 542.90 148.64 540.43 C 150.55 537.37 154.57 532.27 160.09 532.27 L 160.23 532.27 C 164.72 532.33 168.99 535.76 172.91 542.45 C 175.97 547.68 179.12 550.34 182.26 550.34 L 182.32 550.34 C 186.86 550.34 191.03 544.59 192.25 542.40 C 192.82 541.38 194.12 541.01 195.14 541.58 C 196.16 542.16 196.52 543.45 195.96 544.48 C 195.73 544.89 190.31 554.48 182.38 554.60 Z" fill="#040000" fill-rule="nonzero" node-id="88" stroke="none" target-height="23.919983" target-width="133.45001" target-x="63.07" target-y="532.27"></path><path d="M 951.08 722.60 C 946.33 722.60 941.95 719.24 938.08 712.60 C 935.01 707.35 931.87 704.60 928.99 704.52 L 928.93 704.52 C 925.31 704.52 922.23 708.81 921.07 710.67 C 919.38 713.55 917.21 716.12 914.66 718.27 C 907.24 724.12 899.38 723.12 893.07 715.51 C 889.95 711.74 886.97 709.83 884.20 709.83 L 884.20 709.83 C 881.46 709.83 879.30 711.74 877.97 713.35 C 874.97 716.93 872.11 719.25 869.13 720.44 C 864.85 722.15 858.43 722.81 852.13 716.22 C 849.65 713.62 847.13 712.38 844.61 712.64 C 839.72 713.08 836.03 718.64 835.99 718.64 C 835.68 719.11 835.20 719.44 834.65 719.56 C 834.10 719.67 833.52 719.56 833.05 719.25 C 832.07 718.60 831.80 717.28 832.44 716.30 C 832.64 716.01 837.26 709.01 844.20 708.36 C 848.05 708.00 851.76 709.64 855.20 713.24 C 858.92 717.15 863.07 718.24 867.53 716.44 C 869.84 715.52 872.18 713.61 874.68 710.59 C 876.59 708.28 879.79 705.53 884.17 705.53 L 884.17 705.53 C 888.26 705.53 892.34 707.96 896.31 712.75 C 901.20 718.66 906.31 719.35 912.00 714.88 C 914.17 713.04 916.02 710.83 917.45 708.37 C 919.37 705.29 923.37 700.22 929.03 700.22 C 933.53 700.29 937.79 703.71 941.71 710.40 C 944.77 715.64 947.92 718.29 951.06 718.29 L 951.12 718.29 C 955.66 718.24 959.83 712.55 961.05 710.36 C 961.62 709.34 962.92 708.97 963.94 709.54 C 964.96 710.11 965.33 711.41 964.76 712.43 C 964.53 712.85 959.11 722.43 951.18 722.56 Z" fill="#040000" fill-rule="nonzero" node-id="90" stroke="none" target-height="23.900024" target-width="133.53003" target-x="831.8" target-y="700.22"></path><path d="M 951.08 747.91 C 946.33 747.91 941.95 744.55 938.08 737.91 C 935.01 732.67 931.87 729.91 928.99 729.83 L 928.93 729.83 C 925.31 729.83 922.23 734.13 921.07 735.99 C 919.38 738.87 917.21 741.43 914.66 743.58 C 907.24 749.44 899.38 748.43 893.07 740.82 C 889.95 737.05 886.97 735.14 884.20 735.14 L 884.20 735.14 C 881.46 735.14 879.30 737.06 877.97 738.66 C 874.97 742.24 872.11 744.56 869.13 745.75 C 864.85 747.46 858.43 748.12 852.13 741.54 C 849.65 738.93 847.13 737.71 844.61 737.95 C 839.72 738.40 836.03 743.95 835.99 743.95 C 835.34 744.93 834.03 745.20 833.05 744.56 C 832.57 744.25 832.23 743.75 832.12 743.19 C 832.00 742.62 832.12 742.04 832.44 741.56 C 832.64 741.26 837.26 734.26 844.20 733.61 C 848.05 733.26 851.76 734.90 855.20 738.50 C 858.92 742.40 863.07 743.50 867.53 741.70 C 869.84 740.77 872.18 738.86 874.68 735.84 C 876.59 733.54 879.79 730.79 884.17 730.79 L 884.17 730.79 C 888.26 730.79 892.34 733.21 896.31 738.00 C 901.20 743.91 906.31 744.61 912.00 740.14 C 914.17 738.30 916.02 736.09 917.45 733.63 C 919.37 730.55 923.37 725.49 929.03 725.47 C 933.53 725.54 937.79 728.97 941.71 735.66 C 944.77 740.89 947.92 743.54 951.06 743.54 L 951.12 743.54 C 955.66 743.54 959.83 737.80 961.05 735.61 C 961.32 735.12 961.78 734.75 962.32 734.60 C 962.87 734.45 963.45 734.51 963.94 734.79 C 964.96 735.37 965.33 736.66 964.76 737.69 C 964.53 738.10 959.11 747.69 951.18 747.81 Z" fill="#040000" fill-rule="nonzero" node-id="92" stroke="none" target-height="23.970032" target-width="133.33002" target-x="832" target-y="725.47"></path><path d="M 415.65 932.79 L 415.65 851.20 L 585.61 851.20 L 585.61 932.79" fill="#ffffff" fill-rule="nonzero" node-id="94" stroke="none" target-height="81.589966" target-width="169.95999" target-x="415.65" target-y="851.2"></path><path d="M 585.61 934.93 C 585.05 934.93 584.50 934.70 584.11 934.30 C 583.71 933.90 583.49 933.35 583.49 932.79 L 583.49 853.33 L 417.77 853.33 L 417.77 932.79 C 417.77 933.96 416.82 934.91 415.65 934.91 C 414.48 934.91 413.53 933.96 413.53 932.79 L 413.53 851.20 C 413.53 850.64 413.75 850.09 414.15 849.69 C 414.54 849.29 415.09 849.06 415.65 849.06 L 585.65 849.06 C 586.22 849.06 586.76 849.29 587.16 849.69 C 587.56 850.09 587.78 850.63 587.78 851.20 L 587.78 932.79 C 587.78 933.36 587.55 933.91 587.15 934.32 C 586.74 934.72 586.18 934.94 585.61 934.93 Z" fill="#040000" fill-rule="nonzero" node-id="96" stroke="none" target-height="85.880005" target-width="174.25003" target-x="413.53" target-y="849.06"></path><path d="M 622.86 798.00 C 622.94 797.12 623.00 796.23 623.00 795.33 C 623.00 778.49 608.52 764.83 590.65 764.83 C 586.37 764.83 582.14 765.63 578.16 767.20 C 568.33 757.59 553.59 751.48 537.10 751.48 C 520.10 751.48 504.99 757.98 495.18 768.08 C 486.31 759.97 474.70 755.50 462.68 755.57 C 443.55 755.57 427.13 766.47 419.99 782.03 C 415.62 780.15 410.92 779.17 406.16 779.17 C 387.91 779.17 372.79 793.17 369.88 811.60 C 356.79 817.53 347.81 829.54 347.81 843.42 C 347.81 859.42 359.68 872.91 376.06 877.50 C 381.32 891.69 394.17 901.68 409.22 903.28 C 424.27 904.88 438.93 897.82 447.06 885.05 C 464.60 896.23 487.54 893.82 502.38 879.24 C 510.87 891.49 524.38 899.44 539.53 899.44 C 551.31 899.36 562.58 894.60 570.85 886.20 C 579.52 891.25 589.38 893.90 599.41 893.88 C 629.24 893.88 653.41 871.29 653.41 843.42 C 653.45 823.39 640.94 806.14 622.86 798.00 Z" fill="#040000" fill-rule="nonzero" node-id="98" stroke="none" target-height="153.40002" target-width="305.64" target-x="347.81" target-y="751.48"></path><path d="M 179.06 933.87 C 179.06 933.87 170.29 795.12 244.39 712.23 C 246.80 709.59 250.21 708.10 253.77 708.11 C 257.34 708.13 260.74 709.66 263.12 712.32 C 275.19 725.69 299.33 748.67 332.30 761.87 C 338.48 764.26 341.85 770.94 340.09 777.33 C 331.33 808.25 311.38 893.67 344.79 933.87 Z" fill="#ffffff" fill-rule="nonzero" node-id="100" stroke="none" target-height="225.77002" target-width="174.50002" target-x="170.29" target-y="708.1"></path><path d="M 349.33 936.00 L 177.06 936.00 L 176.94 934.00 C 176.85 932.61 168.94 793.41 242.81 710.81 C 245.57 707.75 249.50 706.00 253.62 706.00 L 253.62 706.00 C 257.82 706.01 261.81 707.79 264.62 710.91 C 276.05 723.56 300.13 746.75 333.02 759.91 C 340.20 762.71 344.09 770.49 342.02 777.91 C 313.53 878.49 335.53 919.52 346.31 932.49 Z M 181.08 931.74 L 340.46 931.74 C 310.55 890.08 328.64 809.95 338.04 776.74 C 339.50 771.40 336.68 765.83 331.52 763.84 C 297.84 750.36 273.22 726.67 261.52 713.74 C 259.50 711.51 256.63 710.23 253.62 710.23 L 253.62 710.23 C 250.69 710.21 247.90 711.46 245.96 713.65 C 178.13 789.55 180.41 914.45 181.08 931.74 Z" fill="#040000" fill-rule="nonzero" node-id="102" stroke="none" target-height="230" target-width="180.38998" target-x="168.94" target-y="706"></path><path d="M 693.00 767.08 C 693.00 767.08 655.08 760.15 653.46 730.08 C 653.04 724.70 655.08 719.42 659.00 715.71 C 661.44 713.52 664.84 710.40 669.43 710.40 C 669.43 710.40 646.43 665.86 677.29 652.40 C 720.49 633.58 755.07 698.83 762.94 714.64 L 759.59 770.11 Z" fill="#ffffff" fill-rule="nonzero" node-id="104" stroke="none" target-height="136.52997" target-width="116.51001" target-x="646.43" target-y="633.58"></path><path d="M 761.57 772.36 L 692.64 769.18 C 692.24 769.11 653.05 761.58 651.36 730.18 C 650.89 724.16 653.17 718.25 657.57 714.11 C 659.68 712.22 662.52 709.66 666.25 708.67 C 663.07 701.57 655.53 682.02 661.00 666.56 C 663.60 659.21 668.80 653.79 676.44 650.46 C 690.51 644.33 727.28 638.22 764.83 713.70 L 765.09 714.21 Z M 693.27 764.96 L 757.58 767.90 L 760.78 715.11 C 723.93 641.41 688.21 649.99 678.13 654.38 C 671.61 657.22 667.19 661.80 665.00 668.00 C 658.94 685.11 671.18 709.17 671.30 709.41 L 672.91 712.53 L 669.42 712.53 C 665.71 712.53 662.83 715.12 660.52 717.20 C 657.01 720.49 655.19 725.21 655.60 730.00 C 657.06 757.13 690.90 764.47 693.27 765.00 Z" fill="#040000" fill-rule="nonzero" node-id="106" stroke="none" target-height="134.14001" target-width="114.20001" target-x="650.89" target-y="638.22"></path><path d="M 716.23 729.60 C 715.75 729.60 715.28 729.43 714.91 729.13 C 695.60 713.60 685.15 724.20 684.71 724.66 C 684.21 725.18 683.48 725.42 682.77 725.29 C 682.06 725.15 681.47 724.66 681.20 723.99 C 676.72 712.84 669.81 712.54 669.52 712.53 C 668.40 712.45 667.53 711.52 667.53 710.39 C 667.53 709.27 668.40 708.34 669.52 708.26 C 669.90 708.26 678.31 708.40 683.98 719.85 C 688.76 716.72 700.52 712.11 717.54 725.80 C 718.46 726.54 718.61 727.88 717.88 728.80 C 717.48 729.30 716.87 729.59 716.23 729.60 Z" fill="#040000" fill-rule="nonzero" node-id="108" stroke="none" target-height="21.339966" target-width="51.079956" target-x="667.53" target-y="708.26"></path><path d="M 844.00 933.87 C 844.00 933.87 852.77 795.12 778.67 712.23 C 776.26 709.59 772.85 708.10 769.29 708.11 C 765.72 708.13 762.32 709.66 759.94 712.32 C 747.87 725.69 723.73 748.67 690.75 761.87 C 684.59 764.28 681.24 770.95 683.00 777.33 C 691.76 808.25 711.71 893.67 678.29 933.87 Z" fill="#ffffff" fill-rule="nonzero" node-id="110" stroke="none" target-height="225.77002" target-width="174.48004" target-x="678.29" target-y="708.1"></path><path d="M 846.00 936.00 L 673.71 936.00 L 676.62 932.50 C 687.41 919.50 709.41 878.50 680.92 777.91 C 678.85 770.49 682.74 762.71 689.92 759.91 C 722.80 746.75 746.92 723.56 758.32 710.91 C 761.19 707.82 765.21 706.04 769.43 706.00 C 773.55 706.01 777.48 707.76 780.24 710.83 C 854.08 793.43 846.24 932.63 846.11 934.02 Z M 682.61 931.74 L 842.00 931.74 C 842.66 914.45 844.95 789.55 777.11 713.66 C 775.17 711.47 772.38 710.23 769.45 710.24 L 769.45 710.24 C 766.44 710.24 763.58 711.52 761.56 713.75 C 749.88 726.68 725.27 750.37 691.56 763.85 C 686.40 765.84 683.58 771.41 685.03 776.75 C 694.41 810.00 712.50 890.08 682.59 931.74 Z" fill="#040000" fill-rule="nonzero" node-id="112" stroke="none" target-height="230" target-width="180.37" target-x="673.71" target-y="706"></path><path d="M 258.67 718.93 C 258.67 718.93 283.25 642.13 325.67 654.93 C 368.09 667.73 347.78 718.93 347.78 718.93 C 347.78 718.93 369.01 723.20 356.27 744.53 C 343.53 765.86 330.80 765.86 330.80 765.86 Z" fill="#ffffff" fill-rule="nonzero" node-id="114" stroke="none" target-height="123.72998" target-width="110.34" target-x="258.67" target-y="642.13"></path><path d="M 330.83 768.00 L 330.20 768.00 L 256.15 719.83 L 256.64 718.27 C 257.64 715.06 282.36 639.64 326.31 652.89 C 337.89 656.38 346.08 662.96 350.64 672.46 C 358.82 689.46 352.89 710.67 350.58 717.46 C 353.66 718.55 358.95 721.11 361.31 726.46 C 363.67 731.81 362.55 738.13 358.12 745.55 C 344.92 767.74 331.40 768.00 330.83 768.00 Z M 261.21 718.00 L 331.37 763.63 C 333.81 763.28 344.10 760.79 354.48 743.39 C 358.15 737.25 359.15 732.15 357.48 728.25 C 355.01 722.60 347.48 721.00 347.43 720.98 L 344.95 720.47 L 345.88 718.10 C 345.98 717.85 355.74 692.73 346.88 674.26 C 342.88 665.89 335.55 660.07 325.16 656.93 C 288.34 645.88 265.00 707.42 261.21 718.00 Z" fill="#040000" fill-rule="nonzero" node-id="116" stroke="none" target-height="128.35999" target-width="107.52002" target-x="256.15" target-y="639.64"></path><path d="M 909.38 298.66 C 900.74 298.70 892.94 293.53 889.60 285.56 C 886.27 277.59 888.07 268.40 894.16 262.28 C 900.25 256.16 909.44 254.32 917.42 257.61 C 925.40 260.91 930.61 268.69 930.61 277.33 C 930.63 289.08 921.13 298.62 909.38 298.66 Z M 909.38 260.26 C 902.47 260.23 896.22 264.37 893.56 270.75 C 890.90 277.13 892.34 284.48 897.21 289.38 C 902.09 294.27 909.44 295.75 915.83 293.11 C 922.21 290.47 926.38 284.24 926.38 277.33 C 926.40 272.81 924.62 268.47 921.43 265.26 C 918.24 262.06 913.90 260.26 909.38 260.26 Z" fill="#040000" fill-rule="nonzero" node-id="118" stroke="none" target-height="44.380005" target-width="44.359985" target-x="886.27" target-y="254.32"></path><path d="M 245.04 309.33 L 134.67 258.13 L 181.37 215.46 L 245.04 309.33 Z" fill="#ffffff" fill-rule="nonzero" node-id="120" stroke="none" target-height="93.86998" target-width="110.369995" target-x="134.67" target-y="215.46"></path><path d="M 245.00 311.46 C 244.69 311.46 244.39 311.40 244.11 311.27 L 133.74 260.07 C 133.09 259.77 132.64 259.16 132.53 258.45 C 132.42 257.75 132.67 257.03 133.20 256.55 L 179.90 213.88 C 180.35 213.46 180.96 213.27 181.57 213.34 C 182.18 213.42 182.73 213.75 183.08 214.26 L 246.75 308.13 C 247.29 308.92 247.24 309.98 246.62 310.71 C 246.22 311.19 245.62 311.46 245.00 311.46 Z M 138.47 257.54 L 239.00 304.16 L 181.00 218.69 Z" fill="#040000" fill-rule="nonzero" node-id="122" stroke="none" target-height="98.18999" target-width="114.869995" target-x="132.42" target-y="213.27"></path><path d="M 134.67 373.33 L 130.43 322.13 L 236.55 326.40 L 134.67 373.33 Z" fill="#ffffff" fill-rule="nonzero" node-id="124" stroke="none" target-height="51.19998" target-width="106.12001" target-x="130.43" target-y="322.13"></path><path d="M 134.67 375.46 C 134.29 375.46 133.93 375.36 133.60 375.17 C 133.02 374.81 132.64 374.19 132.60 373.51 L 128.35 322.31 C 128.30 321.70 128.51 321.10 128.93 320.65 C 129.35 320.21 129.94 319.97 130.55 320.00 L 236.68 324.26 C 237.67 324.30 238.49 325.01 238.68 325.98 C 238.87 326.95 238.38 327.92 237.49 328.34 L 135.56 375.27 C 135.28 375.40 134.98 375.46 134.67 375.46 Z M 132.74 324.36 L 136.53 370.12 L 227.60 328.17 Z" fill="#040000" fill-rule="nonzero" node-id="126" stroke="none" target-height="55.48999" target-width="110.56999" target-x="128.3" target-y="319.97"></path><path d="M 53.66 710.66 C 49.17 710.62 44.72 709.76 40.53 708.13 C 28.44 703.57 20.73 696.89 17.64 688.27 C 13.70 677.27 18.08 665.83 22.46 658.14 C 27.01 650.14 33.16 645.42 40.75 644.14 C 55.05 641.71 70.00 652.32 75.00 656.22 L 97.84 629.45 C 99.27 627.77 101.72 627.43 103.55 628.65 L 124.55 642.71 C 127.09 644.42 127.85 647.82 126.28 650.45 L 117.11 665.80 C 116.35 667.08 114.98 667.89 113.49 667.92 C 112.00 667.94 110.60 667.20 109.77 665.97 L 105.18 659.05 L 94.18 677.23 C 93.00 679.89 79.45 710.66 53.66 710.66 Z M 45.06 648.05 C 43.85 648.05 42.64 648.15 41.44 648.35 C 35.18 649.41 30.03 653.42 26.14 660.25 C 22.25 667.08 18.24 677.38 21.63 686.82 C 24.28 694.21 31.15 700.03 42.03 704.13 C 55.23 709.13 67.31 705.88 77.94 694.53 C 83.07 688.90 87.23 682.46 90.25 675.47 L 90.40 675.16 L 101.33 656.86 C 102.09 655.58 103.46 654.77 104.95 654.74 C 106.45 654.74 107.84 655.49 108.67 656.74 L 113.26 663.66 L 122.60 648.30 C 123.01 647.62 122.81 646.74 122.15 646.30 L 101.15 632.24 L 75.44 662.24 L 73.82 660.82 C 73.69 660.66 59.14 648.05 45.06 648.05 Z" fill="#040000" fill-rule="nonzero" node-id="128" stroke="none" target-height="83.22998" target-width="114.15" target-x="13.7" target-y="627.43"></path><path d="M 300.23 738.13 C 299.58 738.13 298.97 737.83 298.57 737.33 C 297.84 736.41 297.99 735.07 298.90 734.33 C 307.77 727.20 315.73 724.14 322.49 725.19 C 325.14 725.58 327.63 726.69 329.69 728.40 C 338.29 716.94 347.40 716.80 347.81 716.80 C 348.99 716.80 349.94 717.75 349.94 718.93 C 349.94 720.11 348.99 721.06 347.81 721.06 C 347.42 721.06 339.33 721.39 331.69 732.91 C 331.28 733.47 330.62 733.80 329.93 733.80 C 329.23 733.80 328.57 733.47 328.16 732.91 C 326.55 730.94 324.23 729.68 321.70 729.39 C 316.22 728.61 309.26 731.45 301.53 737.66 C 301.16 737.96 300.70 738.13 300.23 738.13 Z" fill="#040000" fill-rule="nonzero" node-id="130" stroke="none" target-height="21.330017" target-width="52.100006" target-x="297.84" target-y="716.8"></path><path d="M 2.12 936.00 C 0.94 936.00 -0.01 935.05 -0.01 933.87 C -0.01 932.69 0.94 931.74 2.12 931.74 L 1021.87 930.13 C 1022.45 930.09 1023.01 930.30 1023.42 930.71 C 1023.83 931.12 1024.04 931.68 1024.00 932.26 C 1024.00 933.43 1023.05 934.39 1021.88 934.40 L 2.13 936.00 Z" fill="#040000" fill-rule="nonzero" node-id="132" stroke="none" target-height="5.909973" target-width="1024.05" target-x="-0.01" target-y="930.09"></path><path d="M 337.81 719.39 C 326.17 719.41 314.60 717.59 303.52 714.00 C 264.52 701.32 234.38 667.11 220.80 620.13 C 208.39 577.18 210.19 526.70 225.87 477.99 C 241.55 429.28 269.51 387.30 304.60 359.79 C 342.97 329.71 387.35 319.72 426.34 332.40 C 465.33 345.08 495.48 379.29 509.05 426.27 C 521.46 469.27 519.66 519.70 503.98 568.42 C 488.30 617.14 460.34 659.11 425.26 686.61 C 397.79 708.15 367.25 719.39 337.81 719.39 Z M 391.66 395.22 C 373.08 395.22 355.97 406.11 346.37 413.64 C 322.24 432.55 301.87 463.64 290.50 499.01 C 279.13 534.38 277.50 571.56 286.03 601.10 C 290.25 615.72 300.86 641.40 324.42 649.10 C 347.98 656.80 371.54 642.19 383.49 632.83 C 407.62 613.91 427.98 582.83 439.36 547.45 L 439.36 547.45 C 450.74 512.11 452.36 474.90 443.83 445.36 C 439.60 430.70 429.00 405.00 405.43 397.37 C 400.98 395.93 396.34 395.20 391.66 395.22 Z" fill="#040000" fill-rule="nonzero" node-id="134" stroke="none" target-height="399.68997" target-width="313.07" target-x="208.39" target-y="319.72"></path><path d="M 694.27 717.31 L 694.09 717.31 C 675.29 717.16 660.17 701.80 660.31 683.00 C 661.41 473.45 546.47 366.06 545.31 365.00 C 531.41 352.30 530.38 330.75 543.00 316.78 C 549.04 310.07 557.50 306.06 566.52 305.62 C 575.53 305.18 584.34 308.37 591.00 314.46 C 596.66 319.62 729.52 443.70 728.26 683.35 C 728.21 702.09 713.01 717.27 694.27 717.31 Z" fill="#040000" fill-rule="nonzero" node-id="136" stroke="none" target-height="412.13" target-width="199.14001" target-x="530.38" target-y="305.18"></path><path d="M 892.90 629.00 C 883.06 629.01 873.69 624.73 867.27 617.27 C 809.47 550.50 694.97 550.82 693.87 550.83 C 683.57 551.04 673.73 546.53 667.16 538.59 C 660.56 530.64 657.90 520.13 659.92 510.00 C 685.00 384.12 778.37 315.00 782.33 312.08 C 789.62 306.77 798.73 304.59 807.63 306.02 C 816.53 307.46 824.49 312.38 829.75 319.71 C 840.73 334.95 837.38 356.19 822.25 367.31 C 821.02 368.23 765.11 410.59 737.25 485.65 C 786.65 492.07 866.01 511.86 918.50 572.51 C 930.81 586.75 929.32 608.25 915.17 620.66 C 909.01 626.05 901.09 629.02 892.90 629.00 Z" fill="#040000" fill-rule="nonzero" node-id="138" stroke="none" target-height="324.43002" target-width="272.90997" target-x="657.9" target-y="304.59"></path><path d="M 881.78 476.45 L 882.00 476.50 L 881.65 476.37 C 881.70 476.39 881.74 476.42 881.78 476.45 Z" fill="#ffffff" fill-rule="nonzero" node-id="140" stroke="none" target-height="0.13000488" target-width="0.3499756" target-x="881.65" target-y="476.37"></path><path d="M 457.14 854.92 C 417.14 854.92 394.02 837.31 392.79 836.34 C 391.86 835.61 391.70 834.27 392.42 833.34 C 392.76 832.89 393.27 832.59 393.84 832.52 C 394.40 832.45 394.97 832.61 395.42 832.96 C 395.80 833.26 433.64 861.96 495.42 845.39 C 495.96 845.24 496.54 845.32 497.03 845.60 C 497.52 845.89 497.87 846.35 498.01 846.90 C 498.16 847.45 498.09 848.03 497.80 848.52 C 497.52 849.01 497.06 849.36 496.51 849.51 C 483.68 853.03 470.44 854.85 457.14 854.92 Z" fill="#fffdfd" fill-rule="nonzero" node-id="142" stroke="none" target-height="29.51001" target-width="106.45999" target-x="391.7" target-y="832.45"></path><path d="M 513.00 845.33 C 511.88 845.25 511.01 844.32 511.01 843.20 C 511.01 842.07 511.88 841.14 513.00 841.06 C 513.17 841.06 529.51 840.95 541.54 832.89 C 542.01 832.58 542.58 832.46 543.13 832.57 C 543.69 832.68 544.17 833.01 544.48 833.48 C 544.81 833.95 544.93 834.54 544.82 835.10 C 544.71 835.67 544.38 836.16 543.90 836.48 C 530.73 845.22 513.67 845.33 513.00 845.33 Z" fill="#fffdfd" fill-rule="nonzero" node-id="144" stroke="none" target-height="12.869995" target-width="33.919983" target-x="511.01" target-y="832.46"></path><path d="M 2.60 0.00 L 1021.40 0.00 L 1021.40 1024.00 L 2.60 1024.00 Z" fill="none" node-id="146" stroke="none" target-height="1024" target-width="1018.80005" target-x="2.6" target-y="0"></path><path d="M 398.34 895.46 C 403.89 907.12 406.79 919.87 406.83 932.79 L 415.32 932.79 L 415.32 890.13 Z" fill="#040000" fill-rule="nonzero" node-id="148" stroke="none" target-height="42.659973" target-width="16.980011" target-x="398.34" target-y="890.13"></path><path d="M 602.10 895.46 C 596.55 907.12 593.65 919.87 593.61 932.79 L 585.12 932.79 L 585.12 890.13 Z" fill="#040000" fill-rule="nonzero" node-id="150" stroke="none" target-height="42.659973" target-width="16.97998" target-x="585.12" target-y="890.13"></path><path d="M 470.28 155.16 C 470.28 155.70 470.36 156.22 470.41 156.71 C 470.47 156.19 470.42 155.66 470.28 155.16 Z" fill="none" node-id="152" stroke="none" target-height="1.550003" target-width="0.19000244" target-x="470.28" target-y="155.16"></path></svg>